# xmcd
#
# Track frame offsets:
#	150
#	17527
#	32266
#	49518
#	65645
#	84147
#	100649
#	124076
#	144766
#	162155
#	179595
#	196959
#	217224
#	243776
#	258765
#	276529
#	306044
#
# Disc length: 4377 seconds
#
# Revision: 0
# Processed by: cddbd v1.4PL0 Copyright (c) Steve Scherf et al.
# Submitted via: EasyCDDAExtractor 5.0.2.1
#
DISCID=dc111711
DTITLE=郭富城 - 愛的呼喚
DYEAR=1997
DGENRE=Pop
TTITLE0=愛的呼喚
TTITLE1=有效日期
TTITLE2=複製靈魂
TTITLE3=是最好人生
TTITLE4=戰鼓
TTITLE5=我抱歉
TTITLE6=在懷念你（還需勇氣)
TTITLE7=花
TTITLE8=心頭好
TTITLE9=生日禮物
TTITLE10=國王的新歌
TTITLE11=Track12
TTITLE12=Track13
TTITLE13=Track14
TTITLE14=Track15
TTITLE15=Track16
TTITLE16=Track17
EXTD=
EXTT0=
EXTT1=
EXTT2=
EXTT3=
EXTT4=
EXTT5=
EXTT6=
EXTT7=
EXTT8=
EXTT9=
EXTT10=
EXTT11=
EXTT12=
EXTT13=
EXTT14=
EXTT15=
EXTT16=
PLAYORDER=
